<svg width="280" height="280" viewBox="0 0 280 280" fill="none" xmlns="http://www.w3.org/2000/svg">
<g clip-path="url(#clip0)">
<rect width="280" height="280" rx="48" fill="#4F46E5"/>
<path d="M79.9057 54L64.8398 112.631L94.1461 124.939L109.212 66.308L79.9057 54Z" fill="white"/>
<path d="M198.694 103.888L190.102 137.325L219.408 149.634L228 116.196L198.694 103.888Z" fill="white"/>
<path d="M183.318 163.725L177.41 186.717C176.231 191.304 173.736 194.836 169.925 197.314C166.183 199.522 162.009 200.039 157.405 198.865C152.8 197.692 149.32 195.511 146.964 192.323C144.948 188.935 144.461 185.217 145.501 181.17L162.377 115.493L133.071 103.185L115.028 173.402C113.988 177.449 111.496 180.407 107.552 182.276C103.949 183.945 99.9801 184.227 95.6462 183.122C91.3123 182.017 88.0369 179.601 85.8199 175.874C83.6722 171.877 83.1876 167.585 84.3662 162.999L87.3625 151.338L58.0563 139.03L53.8933 155.231C50.427 168.72 51.7203 179.974 57.773 188.991C63.8258 198.008 73.6239 204.242 87.1674 207.695C100.982 211.216 112.482 210.267 121.667 204.847C127.109 213.996 136.737 220.331 150.551 223.852C164.636 227.443 176.848 226.531 187.186 221.118C197.795 215.773 204.832 206.356 208.299 192.867L212.624 176.033L183.318 163.725Z" fill="white"/>
</g>
<defs>
<clipPath id="clip0">
<rect width="512" height="512" fill="white" transform="translate(-104 -160)"/>
</clipPath>
</defs>
</svg>
